<svg width="127" height="22" viewBox="0 0 127 22" fill="none" xmlns="http://www.w3.org/2000/svg">
<path d="M123.912 11.6962C125.15 11.6962 126.154 10.6921 126.154 9.45355C126.154 8.21499 125.15 7.21094 123.912 7.21094C122.673 7.21094 121.669 8.21499 121.669 9.45355C121.669 10.6921 122.673 11.6962 123.912 11.6962Z" fill="black"/>
<path d="M13.2929 21.1014V21.0492C12.4236 19.2238 12.1629 18.0938 12.1629 15.6078V0.969974L14.0752 1.07428C15.4312 1.23074 17.4826 3.94275 18.9776 6.09844L19.4122 6.01152L18.4213 0.46582H1.85377L0.845459 6.01152L1.28007 6.09844C2.77515 3.94275 4.80915 1.23074 6.14777 1.07428L8.11224 0.969974V15.6078C8.11224 18.0938 7.83408 19.2238 6.94746 21.0492V21.1014H13.2929Z" fill="black"/>
<path d="M103.659 11.2996L107.205 21.3653H107.97L111.552 11.9776L114.768 21.3653H115.533L119.236 11.4039C120.001 9.43946 120.557 8.62238 121.548 7.5793V7.52715H118.297V7.5793C118.784 8.20515 119.288 9.70023 118.523 11.7342L116.802 16.3064L115.168 11.1953C114.629 9.509 114.768 8.17038 115.202 7.5793V7.52715H109.448V7.5793C110.126 8.2573 110.578 9.02223 111.308 11.2127L109.274 16.4802L107.553 11.1779C107.014 9.59592 107.188 8.153 107.605 7.56192V7.50977H101.764V7.5793C102.477 8.34423 102.894 9.19608 103.659 11.2996Z" fill="black"/>
<path d="M95.453 7.66158C97.939 7.66158 99.0343 10.6865 99.0343 14.3547C99.0343 18.0576 97.939 21.013 95.453 21.013C92.9497 21.013 91.9066 18.0576 91.9066 14.3547C91.9066 10.6865 92.9844 7.66158 95.453 7.66158ZM95.453 21.5345C99.521 21.5345 102.842 18.1793 102.842 14.3373C102.842 10.4779 99.4863 7.08789 95.453 7.08789C91.4198 7.08789 88.0646 10.4779 88.0646 14.3373C88.0646 18.1793 91.3677 21.5345 95.453 21.5345Z" fill="black"/>
<path d="M79.2847 21.1216H84.1872V21.0694C83.6482 19.6265 83.5439 18.2705 83.5439 15.8714V10.9342C84.0828 10.291 84.6739 9.9259 85.1259 9.9259C85.8039 9.9259 87.2121 10.4648 87.8032 11.1428H87.9422L88.203 7.10959C86.0821 7.02266 84.6218 9.16097 83.457 10.4127H83.4222V6.95312L78.6067 8.50036V8.55251C79.4238 9.54343 79.9279 10.6387 79.9279 12.5857V15.8541C79.9279 18.3401 79.7367 19.5744 79.2847 21.0521V21.1216Z" fill="black"/>
<path d="M68.5065 21.1216H73.409V21.0694C72.87 19.6265 72.7657 18.2705 72.7657 15.8714V10.9342C73.3046 10.291 73.8957 9.9259 74.3477 9.9259C75.0257 9.9259 76.4339 10.4648 77.025 11.1428H77.164L77.4248 7.10959C75.3039 7.02266 73.8436 9.16097 72.6788 10.4127H72.644V6.95312L67.8285 8.50036V8.55251C68.6456 9.54343 69.1497 10.6387 69.1497 12.5857V15.8541C69.1497 18.3401 68.9585 19.5744 68.5065 21.0521V21.1216Z" fill="black"/>
<path d="M59.9707 7.66158C62.4567 7.66158 63.552 10.6865 63.552 14.3547C63.552 18.0576 62.4567 21.013 59.9707 21.013C57.4674 21.013 56.4243 18.0576 56.4243 14.3547C56.4243 10.6865 57.4847 7.66158 59.9707 7.66158ZM59.9707 21.5345C64.0387 21.5345 67.3592 18.1793 67.3592 14.3373C67.3592 10.4779 64.004 7.08789 59.9707 7.08789C55.9375 7.08789 52.5823 10.4779 52.5823 14.3373C52.5823 18.1793 55.8854 21.5345 59.9707 21.5345Z" fill="black"/>
<path d="M35.4236 21.1216V21.0694C34.8847 19.6265 34.7804 18.2705 34.7804 15.8714V10.4822C35.4236 9.4739 36.3798 8.98713 37.3707 8.98713C38.8136 8.98713 39.2656 10.065 39.2656 11.3341V15.9062C39.2656 18.2184 39.1613 19.6265 38.6224 21.0694V21.1216H43.5249V21.0694C42.9859 19.6265 42.8469 18.3053 42.8469 15.8541V10.4822C43.1271 10.028 43.5183 9.65246 43.9836 9.39093C44.4489 9.12941 44.973 8.99045 45.5067 8.98713C46.9496 8.98713 47.3669 10.065 47.3669 11.3341V15.9062C47.3669 18.2184 47.2626 19.6265 46.7236 21.0694V21.1216H51.6261V21.0694C51.0872 19.6265 50.9829 18.3053 50.9829 15.8541V10.8821C50.9829 8.51774 49.679 7.10959 47.3147 7.10959C45.2807 7.10959 43.8378 8.27436 42.8642 9.76943H42.8121C42.4818 8.08313 41.2649 7.10959 39.2309 7.10959C37.1969 7.10959 35.7365 8.27436 34.7978 9.76943L34.6935 9.73467V6.95312L29.8779 8.50036V8.55251C30.695 9.54343 31.1992 10.6387 31.1992 12.5857V15.8541C31.1992 18.3401 31.0079 19.5744 30.5559 21.0521V21.1042H35.4236V21.1216Z" fill="black"/>
<path d="M21.9674 7.66158C24.4534 7.66158 25.5486 10.6865 25.5486 14.3547C25.5486 18.0576 24.4534 21.013 21.9674 21.013C19.464 21.013 18.4209 18.0576 18.4209 14.3547C18.4035 10.6865 19.4814 7.66158 21.9674 7.66158ZM21.9674 21.5345C26.0354 21.5345 29.3558 18.1793 29.3558 14.3373C29.3558 10.4779 26.0006 7.08789 21.9674 7.08789C17.9341 7.08789 14.5615 10.4779 14.5615 14.3373C14.5615 18.1793 17.8646 21.5345 21.9674 21.5345Z" fill="black"/>
</svg>
